<?xml version="1.0" encoding="UTF-8"?>
<svg version="1.1" xmlns="http://www.w3.org/2000/svg" width="16" height="16">
<path d="M0 0 C5.28 0 10.56 0 16 0 C16 5.28 16 10.56 16 16 C10.72 16 5.44 16 0 16 C0 10.72 0 5.44 0 0 Z " fill="#267B81" transform="translate(0,0)"/>
<path d="M0 0 C5.28 0 10.56 0 16 0 C16 5.28 16 10.56 16 16 C10.72 16 5.44 16 0 16 C0 10.72 0 5.44 0 0 Z M2 2 C2 5.96 2 9.92 2 14 C5.96 14 9.92 14 14 14 C14 10.04 14 6.08 14 2 C10.04 2 6.08 2 2 2 Z " fill="#CDD9DA" transform="translate(0,0)"/>
<path d="M0 0 C5.28 0 10.56 0 16 0 C16 3.96 16 7.92 16 12 C15.67 12 15.34 12 15 12 C14.67 9.03 14.34 6.06 14 3 C10.04 3 6.08 3 2 3 C1.67 6.3 1.34 9.6 1 13 C0.67 13 0.34 13 0 13 C0 8.71 0 4.42 0 0 Z " fill="#E9E9EA" transform="translate(0,0)"/>
<path d="M0 0 C0.66 0 1.32 0 2 0 C2.33 0.66 2.66 1.32 3 2 C3.33 1.34 3.66 0.68 4 0 C5.65 0 7.3 0 9 0 C9 4 9 4 8 6 C5.36 6 2.72 6 0 6 C0 4.02 0 2.04 0 0 Z " fill="#8EB9BC" transform="translate(3,5)"/>
<path d="M0 0 C3.96 0 7.92 0 12 0 C12 1.32 12 2.64 12 4 C9.69 3.67 7.38 3.34 5 3 C4.67 3.99 4.34 4.98 4 6 C3.67 5.01 3.34 4.02 3 3 C2.01 3.33 1.02 3.66 0 4 C0 2.68 0 1.36 0 0 Z " fill="#338388" transform="translate(2,2)"/>
<path d="M0 0 C1.65 0 3.3 0 5 0 C5 1.32 5 2.64 5 4 C3.68 4.33 2.36 4.66 1 5 C0.67 3.35 0.34 1.7 0 0 Z " fill="#AFCDCF" transform="translate(7,5)"/>
</svg>
